# xmcd CD database file
#
# Track frame offsets:
#	150
#	30805
#	53802
#	81720
#	107222
#	128582
#	158600
#	185220
#	204982
#	227000
#
# Disc length: 3269 seconds
#
# Revision: 0
# Processed by: cddbd v1.5.1PL0 Copyright (c) Steve Scherf et al.
# Submitted via: CDex 1.51
#
DISCID=7c0cc30a
DTITLE=die chromatischen phantasten - reise nach dschabarsa
DYEAR=1900
DGENRE=Jazz
TTITLE0=dawn
TTITLE1=albayzin
TTITLE2=first day in may
TTITLE3=fata orkana
TTITLE4=breezin brothers
TTITLE5=der schwarze schwan
TTITLE6=reise nach dschabarsa
TTITLE7=wrong weather
TTITLE8=first flight
TTITLE9=mondlicht
EXTD=
EXTT0=
EXTT1=
EXTT2=
EXTT3=
EXTT4=
EXTT5=
EXTT6=
EXTT7=
EXTT8=
EXTT9=
PLAYORDER=
